<svg fill="none" preserveAspectRatio="xMidYMid meet" height="406" viewBox="0 0 1289 406" width="1289" xmlns="http://www.w3.org/2000/svg" xmlns:xlink="http://www.w3.org/1999/xlink"><clipPath id="a"><path d="m0 0h1289v406h-1289z"/></clipPath><g clip-path="url(#a)"><g fill="#333"><path d="m356.486 167.727c6.925-90.1985-52.024-141.3349-147.017-141.3349-94.638 0-179.8653 61.7898-199.5741 181.1079-20.0639 123.58 45.9872 192.472 148.4371 192.472 104.226 0 167.436-74.574 182.529-136.364h-99.432c-10.121 30.54-37.82 50.426-77.415 50.426-44.922 0-64.808-31.25-54.687-95.17 11.186-66.051 47.407-106.534 99.432-106.534 36.044 0 51.669 22.017 49.005 55.397z"/><path clip-rule="evenodd" d="m361.471 168.11c-.2 2.605-2.372 4.617-4.985 4.617h-98.722c-1.395 0-2.727-.583-3.673-1.608-.947-1.025-1.422-2.399-1.311-3.789 1.27-15.915-1.889-28.287-8.842-36.615-6.87-8.229-18.182-13.385-35.18-13.385-24.583 0-45.322 9.512-61.355 26.888-16.118 17.468-27.659 43.101-33.142 75.454-4.988 31.527-2.365 53.899 6.075 68.207 8.188 13.881 22.472 21.155 43.678 21.155 37.742 0 63.316-18.778 72.669-46.999.678-2.046 2.591-3.427 4.746-3.427h99.432c1.535 0 2.985.705 3.932 1.912.948 1.208 1.289 2.783.925 4.274-15.549 63.659-80.495 140.178-187.386 140.178-52.337 0-96.0456-17.626-124.0263-51.722-27.97129-34.084-39.53653-83.786-29.34624-146.551l.0022-.014c20.10384-121.7097 107.39934-185.2929 204.50734-185.2929 48.329 0 88.194 13.0082 115.141 38.1899 27.056 25.2835 40.417 62.212 36.861 108.528zm-252.144 50.754c11.186-66.051 47.407-106.534 99.431-106.534 34.213 0 50.029 19.836 49.27 50.397-.04 1.637-.128 3.304-.264 5h98.722c6.924-90.1985-52.024-141.3349-147.017-141.3349-94.638 0-179.8654 61.7898-199.57417 181.1079-20.06393 123.58 45.98727 192.472 148.43717 192.472 101.429 0 164.015-70.626 181.21-131.364.474-1.675.914-3.342 1.319-5h-99.432c-10.121 30.54-37.82 50.426-77.415 50.426-44.922 0-64.8081-31.25-54.687-95.17z" fill-rule="evenodd"/><path d="m414.102 399.972c75.995 0 129.972-36.222 149.148-93.04h-89.489c-8.522 15.625-26.278 24.148-46.164 24.148-29.12 0-42.614-19.177-38.353-45.455l.888-4.261h177.379l3.551-22.728c14.205-86.647-29.829-139.914-112.215-139.914-84.518 0-147.728 56.107-161.932 140.625-14.915 88.068 29.829 140.625 117.187 140.625zm-13.849-172.586c5.504-23.97 26.456-39.772 50.071-39.772 24.148 0 39.062 16.335 35.511 39.772z"/><path clip-rule="evenodd" d="m567.312 304.016c.939 1.308 1.191 2.989.675 4.515-20.003 59.268-76.222 96.441-153.885 96.441-44.634 0-79.294-13.446-100.778-39.075-21.477-25.622-28.952-62.428-21.34-107.381 14.587-86.785 79.766-144.794 166.863-144.794 42.261 0 75.489 13.693 96.217 39.32 20.691 25.582 28.185 62.144 20.936 106.385-.001.006-.002.012-.003.018l-3.546 22.691c-.38 2.433-2.476 4.228-4.94 4.228h-173.313l-.036.169c-1.943 12.124.303 21.89 5.641 28.545 5.304 6.612 14.344 11.002 27.794 11.002 18.572 0 34.35-7.931 41.775-21.542.876-1.607 2.56-2.606 4.389-2.606h89.489c1.611 0 3.122.776 4.062 2.084zm-177.18-22.652h177.379l3.552-22.728c14.204-86.647-29.83-139.914-112.216-139.914-84.517 0-147.728 56.108-161.932 140.625-14.915 88.068 29.829 140.625 117.187 140.625 73.741 0 126.751-34.105 147.351-88.04.629-1.648 1.228-3.315 1.797-5h-89.489c-8.522 15.625-26.278 24.148-46.164 24.148-29.12 0-42.614-19.176-38.353-45.455zm10.121-53.978h85.582c3.551-23.437-11.363-39.772-35.511-39.772-21.931 0-41.566 13.629-48.663 34.772-.545 1.624-1.016 3.291-1.408 5zm6.715-5h74.349c.395-8.511-2.136-15.4-6.569-20.333-5.176-5.759-13.476-9.439-24.424-9.439-19.273 0-36.522 11.614-43.356 29.772z" fill-rule="evenodd"/><path d="m551.131 395h98.011l23.438-142.045c5.681-31.25 30.539-51.847 58.948-51.847 10.654 0 26.279 1.42 35.512 4.972l14.204-83.807c-7.812-2.131-15.625-3.551-24.147-3.551-29.12 0-54.688 17.045-71.023 55.397h-2.841l8.523-51.846h-95.171z"/><path clip-rule="evenodd" d="m547.316 398.232c-.95-1.121-1.359-2.604-1.117-4.054l45.454-272.727c.402-2.411 2.488-4.178 4.932-4.178h95.171c1.467 0 2.861.645 3.811 1.764s1.361 2.598 1.122 4.047l-4.788 29.131c16.706-26.085 39.472-38.493 65.196-38.493 9.098 0 17.37 1.52 25.463 3.727 2.481.677 4.044 3.124 3.614 5.659l-14.205 83.807c-.25 1.479-1.151 2.767-2.454 3.509s-2.87.861-4.27.322c-8.345-3.209-23.211-4.638-33.717-4.638-25.832 0-48.732 18.702-54.022 47.701l-23.431 142.005c-.398 2.415-2.486 4.186-4.933 4.186h-98.011c-1.47 0-2.865-.647-3.815-1.768zm142.224-231.658c-1.197 2.417-2.353 4.932-3.466 7.545h-2.841l8.523-51.846h-95.171l-45.454 272.727h98.011l23.438-142.045c5.681-31.25 30.539-51.847 58.948-51.847 8.97 0 21.463 1.007 30.699 3.445 1.734.457 3.353.965 4.813 1.527l14.204-83.807c-7.812-2.131-15.625-3.551-24.147-3.551-27.135 0-51.187 14.801-67.557 47.852z" fill-rule="evenodd"/><path d="m842.102 399.972c75.995 0 129.972-36.222 149.148-93.04h-89.489c-8.522 15.625-26.278 24.148-46.164 24.148-29.12 0-42.614-19.177-38.353-45.455l.888-4.261h177.379l3.551-22.728c14.208-86.647-29.829-139.914-112.215-139.914-84.517 0-147.728 56.107-161.932 140.625-14.915 88.068 29.829 140.625 117.187 140.625zm-13.849-172.586c5.504-23.97 26.456-39.772 50.071-39.772 24.148 0 39.062 16.335 35.511 39.772z"/><path clip-rule="evenodd" d="m995.312 304.016c.939 1.308 1.19 2.989.675 4.515-20.003 59.268-76.222 96.441-153.885 96.441-44.634 0-79.295-13.446-100.778-39.075-21.477-25.622-28.952-62.428-21.34-107.381 14.587-86.785 79.766-144.794 166.863-144.794 42.261 0 75.489 13.693 96.217 39.32 20.696 25.582 28.186 62.144 20.936 106.385v.018l-3.55 22.691c-.38 2.433-2.475 4.228-4.939 4.228h-173.313l-.036.169c-1.943 12.124.303 21.89 5.641 28.545 5.304 6.612 14.344 11.002 27.794 11.002 18.572 0 34.35-7.931 41.775-21.542.876-1.607 2.56-2.606 4.389-2.606h89.489c1.611 0 3.122.776 4.062 2.084zm-177.18-22.652h177.379l3.551-22.728c14.208-86.647-29.829-139.914-112.215-139.914-84.517 0-147.728 56.108-161.932 140.625-14.915 88.068 29.829 140.625 117.187 140.625 73.741 0 126.751-34.105 147.351-88.04.629-1.648 1.228-3.315 1.797-5h-89.489c-8.522 15.625-26.278 24.148-46.164 24.148-29.12 0-42.614-19.176-38.353-45.455zm10.121-53.978h85.582c3.551-23.437-11.363-39.772-35.511-39.772-21.931 0-41.566 13.629-48.663 34.772-.545 1.624-1.016 3.291-1.408 5zm6.715-5h74.349c.395-8.511-2.136-15.4-6.569-20.333-5.176-5.759-13.476-9.439-24.424-9.439-19.273 0-36.522 11.614-43.356 29.772z" fill-rule="evenodd"/><path d="m1252.25 211.051c7.63-57.528-36.93-92.329-118.61-92.329-74.93 0-125.18 28.764-134.231 83.096-7.635 45.455 17.751 75.639 71.731 85.227l46.88 8.523c20.77 4.084 26.99 7.102 26.28 14.915-1.96 13.849-19.71 24.148-40.49 23.437-19.17-.355-31.43-9.233-31.96-26.988h-95.168c-3.729 55.398 39.768 93.04 125.708 93.04 73.16 0 131.75-33.559 141.34-89.489 6.74-42.791-18.47-68.892-72.45-78.835l-53.97-9.943c-20.07-3.907-22.55-8.701-21.31-14.205 1.95-13.849 20.24-23.438 39.77-23.438 16.69 0 29.65 9.944 28.41 26.989z"/><path clip-rule="evenodd" d="m1257.21 211.709c-.33 2.485-2.45 4.342-4.96 4.342h-88.07c-1.39 0-2.71-.578-3.66-1.595-.95-1.018-1.43-2.383-1.32-3.768.51-7.066-1.88-12.269-5.83-15.793-4.06-3.626-10.19-5.832-17.6-5.832-9 0-17.59 2.222-24 5.871-6.48 3.686-10.14 8.423-10.82 13.264-.02.136-.04.27-.07.403-.21.902-.15 1.313-.09 1.501.03.121.16.529.99 1.192 1.95 1.557 6.52 3.561 16.46 5.498.01.002.01.003.02.005l53.93 9.934c27.49 5.064 48.5 14.377 61.75 28.61 13.45 14.451 18.29 33.315 14.73 55.921-.01.022-.01.044-.01.066-10.2 59.492-72.09 93.644-146.27 93.644-43.59 0-77.19-9.534-99.53-26.789-22.562-17.421-33.136-42.337-31.167-71.587.177-2.625 2.358-4.664 4.989-4.664h95.168c2.71 0 4.92 2.148 5 4.85.23 7.66 2.92 12.859 7.14 16.286 4.37 3.546 11 5.688 19.92 5.853.02.001.05.002.07.002 9.56.327 18.25-1.893 24.63-5.588 6.37-3.692 9.98-8.537 10.72-13.425.09-1.17-.1-1.719-.28-2.041-.21-.373-.74-1.028-2.25-1.864-3.27-1.802-9.23-3.462-19.71-5.524l-46.82-8.513c-.01 0-.01-.001-.02-.002-27.65-4.915-48.75-15.234-61.9-30.865-13.274-15.768-17.88-36.246-13.872-60.107 4.779-28.674 20.512-50.675 44.752-65.374 24.09-14.608 56.38-21.898 94.41-21.898 41.42 0 74.25 8.802 95.87 25.647 21.92 17.076 31.73 41.973 27.7 72.34zm-257.801-9.891c-7.635 45.455 17.751 75.639 71.731 85.228l46.88 8.522c20.77 4.084 26.99 7.103 26.28 14.915-1.96 13.849-19.71 24.148-40.49 23.438-19.17-.356-31.43-9.233-31.96-26.989h-95.168c-3.729 55.398 39.768 93.04 125.708 93.04 73.16 0 131.75-33.559 141.34-89.489 6.74-42.791-18.47-68.892-72.45-78.835l-53.97-9.943c-20.07-3.907-22.55-8.701-21.31-14.205 1.95-13.849 20.24-23.437 39.77-23.437 15.2 0 27.31 8.243 28.41 22.586.11 1.409.11 2.877 0 4.402h88.07c7.63-57.528-36.93-92.329-118.61-92.329-74.93 0-125.18 28.764-134.231 83.096z" fill-rule="evenodd"/></g><path d="m386.486 147.727c6.925-90.1985-52.024-141.33491-147.017-141.33491-94.638 0-179.8653 61.78981-199.5741 181.10791-20.0639 123.58 45.9872 192.472 148.4371 192.472 104.226 0 167.436-74.574 182.529-136.364h-99.432c-10.121 30.54-37.82 50.426-77.415 50.426-44.922 0-64.808-31.25-54.687-95.17 11.186-66.051 47.407-106.5344 99.432-106.5344 36.044 0 51.669 22.0174 49.005 55.3974z" fill="#f3c6bd"/><path clip-rule="evenodd" d="m391.471 148.11c-.2 2.605-2.372 4.617-4.985 4.617h-98.722c-1.395 0-2.727-.583-3.673-1.608-.947-1.025-1.422-2.399-1.311-3.789 1.27-15.915-1.889-28.287-8.842-36.615-6.87-8.229-18.182-13.3854-35.18-13.3854-24.583 0-45.322 9.5124-61.355 26.8884-16.118 17.468-27.659 43.101-33.142 75.454-4.988 31.527-2.365 53.899 6.075 68.207 8.188 13.881 22.472 21.155 43.678 21.155 37.742 0 63.316-18.778 72.669-46.999.678-2.046 2.591-3.427 4.746-3.427h99.432c1.535 0 2.985.705 3.932 1.912.948 1.208 1.289 2.783.925 4.274-15.549 63.659-80.495 140.178-187.386 140.178-52.337 0-96.0456-17.626-124.0263-51.722-27.9713-34.084-39.5365-83.786-29.3462-146.551l.0022-.014c20.1038-121.7097 107.3993-185.29291 204.5073-185.29291 48.329 0 88.194 13.00821 115.141 38.18991 27.056 25.2835 40.417 62.212 36.861 108.528zm-252.144 50.754c11.186-66.051 47.407-106.5344 99.431-106.5344 34.213 0 50.029 19.8364 49.27 50.3974-.04 1.637-.128 3.304-.264 5h98.722c6.924-90.1985-52.024-141.33491-147.017-141.33491-94.638 0-179.8654 61.78981-199.5742 181.10791-20.0639 123.58 45.9873 192.472 148.4372 192.472 101.429 0 164.015-70.626 181.21-131.364.474-1.675.914-3.342 1.319-5h-99.432c-10.121 30.54-37.82 50.426-77.415 50.426-44.922 0-64.808-31.25-54.687-95.17z" fill="#000" fill-rule="evenodd"/><path d="m444.102 379.972c75.995 0 129.972-36.222 149.148-93.04h-89.489c-8.522 15.625-26.278 24.148-46.164 24.148-29.12 0-42.614-19.177-38.353-45.455l.888-4.261h177.379l3.551-22.728c14.205-86.647-29.829-139.9143-112.215-139.9143-84.518 0-147.728 56.1083-161.932 140.6253-14.915 88.068 29.829 140.625 117.187 140.625zm-13.849-172.586c5.504-23.97 26.456-39.772 50.071-39.772 24.148 0 39.062 16.335 35.511 39.772z" fill="#f3c6bd"/><path clip-rule="evenodd" d="m597.312 284.016c.939 1.308 1.191 2.989.675 4.515-20.003 59.268-76.222 96.441-153.885 96.441-44.634 0-79.294-13.446-100.778-39.075-21.477-25.622-28.952-62.428-21.34-107.381 14.587-86.785 79.766-144.7943 166.863-144.7943 42.261 0 75.489 13.6933 96.217 39.3203 20.691 25.582 28.185 62.144 20.936 106.385-.001.006-.002.012-.003.018l-3.546 22.691c-.38 2.433-2.476 4.228-4.94 4.228h-173.313l-.036.169c-1.943 12.124.303 21.89 5.641 28.545 5.304 6.612 14.344 11.002 27.794 11.002 18.572 0 34.35-7.931 41.775-21.542.876-1.607 2.56-2.606 4.389-2.606h89.489c1.611 0 3.122.776 4.062 2.084zm-177.18-22.652h177.379l3.552-22.728c14.204-86.647-29.83-139.9143-112.216-139.9143-84.517 0-147.728 56.1083-161.932 140.6253-14.915 88.068 29.829 140.625 117.187 140.625 73.741 0 126.751-34.105 147.351-88.04.629-1.648 1.228-3.315 1.797-5h-89.489c-8.522 15.625-26.278 24.148-46.164 24.148-29.12 0-42.614-19.176-38.353-45.455zm10.121-53.978h85.582c3.551-23.437-11.363-39.772-35.511-39.772-21.931 0-41.566 13.629-48.663 34.772-.545 1.624-1.016 3.291-1.408 5zm6.715-5h74.349c.395-8.511-2.136-15.4-6.569-20.333-5.176-5.759-13.476-9.439-24.424-9.439-19.273 0-36.522 11.614-43.356 29.772z" fill="#000" fill-rule="evenodd"/><path d="m581.131 375h98.011l23.438-142.045c5.681-31.25 30.539-51.847 58.948-51.847 10.654 0 26.279 1.42 35.512 4.972l14.204-83.807c-7.812-2.131-15.625-3.5513-24.147-3.5513-29.12 0-54.688 17.0453-71.023 55.3973h-2.841l8.523-51.846h-95.171z" fill="#f3c6bd"/><path clip-rule="evenodd" d="m577.316 378.232c-.95-1.121-1.359-2.604-1.117-4.054l45.454-272.727c.402-2.4111 2.488-4.1782 4.932-4.1782h95.171c1.467 0 2.861.645 3.811 1.7639.95 1.1193 1.361 2.5983 1.122 4.0473l-4.788 29.131c16.706-26.085 39.472-38.4933 65.196-38.4933 9.098 0 17.37 1.5201 25.463 3.7273 2.481.6765 4.044 3.124 3.614 5.659l-14.205 83.807c-.25 1.479-1.151 2.767-2.454 3.509s-2.87.861-4.27.322c-8.345-3.209-23.211-4.638-33.717-4.638-25.832 0-48.732 18.702-54.022 47.701l-23.431 142.005c-.398 2.415-2.486 4.186-4.933 4.186h-98.011c-1.47 0-2.865-.647-3.815-1.768zm142.224-231.658c-1.197 2.417-2.353 4.932-3.466 7.545h-2.841l8.523-51.846h-95.171l-45.454 272.727h98.011l23.438-142.045c5.681-31.25 30.539-51.847 58.948-51.847 8.97 0 21.463 1.007 30.699 3.445 1.734.457 3.353.965 4.813 1.527l14.204-83.807c-7.812-2.131-15.625-3.5513-24.147-3.5513-27.135 0-51.187 14.8013-67.557 47.8523z" fill="#000" fill-rule="evenodd"/><path d="m872.102 379.972c75.995 0 129.968-36.222 149.148-93.04h-89.489c-8.522 15.625-26.278 24.148-46.164 24.148-29.12 0-42.614-19.177-38.353-45.455l.888-4.261h177.378l3.55-22.728c14.21-86.647-29.827-139.9143-112.213-139.9143-84.517 0-147.728 56.1083-161.932 140.6253-14.915 88.068 29.829 140.625 117.187 140.625zm-13.849-172.586c5.504-23.97 26.456-39.772 50.071-39.772 24.148 0 39.062 16.335 35.511 39.772z" fill="#f3c6bd"/><path clip-rule="evenodd" d="m1025.31 284.016c.94 1.308 1.19 2.989.68 4.515-20.01 59.268-76.225 96.441-153.888 96.441-44.634 0-79.295-13.446-100.778-39.075-21.477-25.622-28.952-62.428-21.34-107.381 14.587-86.785 79.766-144.7943 166.863-144.7943 42.261 0 75.489 13.6933 96.213 39.3203 20.7 25.582 28.19 62.144 20.94 106.385v.018l-3.55 22.691c-.38 2.433-2.48 4.228-4.94 4.228h-173.312l-.036.169c-1.943 12.124.303 21.89 5.641 28.545 5.304 6.612 14.344 11.002 27.794 11.002 18.572 0 34.35-7.931 41.775-21.542.876-1.607 2.56-2.606 4.389-2.606h89.489c1.61 0 3.12.776 4.06 2.084zm-177.178-22.652h177.378l3.55-22.728c14.21-86.647-29.827-139.9143-112.213-139.9143-84.517 0-147.728 56.1083-161.932 140.6253-14.915 88.068 29.829 140.625 117.187 140.625 73.741 0 126.751-34.105 147.348-88.04.63-1.648 1.23-3.315 1.8-5h-89.489c-8.522 15.625-26.278 24.148-46.164 24.148-29.12 0-42.614-19.176-38.353-45.455zm10.121-53.978h85.582c3.551-23.437-11.363-39.772-35.511-39.772-21.931 0-41.566 13.629-48.663 34.772-.545 1.624-1.016 3.291-1.408 5zm6.715-5h74.349c.395-8.511-2.136-15.4-6.569-20.333-5.176-5.759-13.476-9.439-24.424-9.439-19.273 0-36.522 11.614-43.356 29.772z" fill="#000" fill-rule="evenodd"/><path d="m1282.25 191.051c7.63-57.528-36.93-92.3293-118.61-92.3293-74.93 0-125.18 28.7643-134.23 83.0963-7.64 45.455 17.75 75.639 71.73 85.228l46.88 8.522c20.77 4.084 26.99 7.103 26.28 14.915-1.96 13.849-19.71 24.148-40.49 23.438-19.17-.356-31.43-9.233-31.96-26.989h-95.17c-3.73 55.398 39.77 93.04 125.71 93.04 73.16 0 131.75-33.559 141.34-89.489 6.74-42.791-18.47-68.892-72.45-78.835l-53.97-9.943c-20.07-3.907-22.55-8.701-21.31-14.205 1.95-13.849 20.24-23.437 39.77-23.437 16.69 0 29.65 9.943 28.41 26.988z" fill="#f3c6bd"/><path clip-rule="evenodd" d="m1287.21 191.709c-.33 2.485-2.45 4.342-4.96 4.342h-88.07c-1.39 0-2.71-.578-3.66-1.595-.95-1.018-1.43-2.383-1.32-3.768.51-7.066-1.88-12.269-5.83-15.793-4.06-3.626-10.19-5.832-17.6-5.832-9 0-17.59 2.222-24 5.871-6.48 3.686-10.14 8.423-10.82 13.264-.02.136-.04.27-.07.403-.21.902-.15 1.313-.09 1.501.03.121.16.529.99 1.192 1.95 1.557 6.52 3.561 16.46 5.498.01.002.01.003.02.005l53.93 9.934c27.49 5.064 48.5 14.377 61.75 28.61 13.45 14.451 18.29 33.315 14.73 55.921-.01.022-.01.044-.01.066-10.2 59.492-72.09 93.644-146.27 93.644-43.59 0-77.19-9.534-99.53-26.789-22.56-17.421-33.136-42.337-31.17-71.587.18-2.625 2.36-4.664 4.99-4.664h95.17c2.71 0 4.92 2.148 5 4.85.23 7.66 2.92 12.859 7.14 16.286 4.37 3.546 11 5.688 19.92 5.853.02.001.05.002.07.002 9.56.327 18.25-1.893 24.63-5.588 6.37-3.692 9.98-8.537 10.72-13.425.09-1.17-.1-1.719-.28-2.041-.21-.373-.74-1.028-2.25-1.864-3.27-1.802-9.23-3.462-19.71-5.524l-46.82-8.513c-.01 0-.01-.001-.02-.002-27.65-4.915-48.75-15.234-61.9-30.865-13.27-15.768-17.88-36.246-13.87-60.107 4.78-28.674 20.51-50.675 44.75-65.374 24.09-14.608 56.38-21.8983 94.41-21.8983 41.42 0 74.25 8.8023 95.87 25.6473 21.92 17.076 31.73 41.973 27.7 72.34zm-257.8-9.891c-7.64 45.455 17.75 75.639 71.73 85.228l46.88 8.522c20.77 4.084 26.99 7.103 26.28 14.915-1.96 13.849-19.71 24.148-40.49 23.438-19.17-.356-31.43-9.233-31.96-26.989h-95.17c-3.73 55.398 39.77 93.04 125.71 93.04 73.16 0 131.75-33.559 141.34-89.489 6.74-42.791-18.47-68.892-72.45-78.835l-53.97-9.943c-20.07-3.907-22.55-8.701-21.31-14.205 1.95-13.849 20.24-23.437 39.77-23.437 15.2 0 27.31 8.243 28.41 22.586.11 1.409.11 2.877 0 4.402h88.07c7.63-57.528-36.93-92.3293-118.61-92.3293-74.93 0-125.18 28.7643-134.23 83.0963z" fill="#000" fill-rule="evenodd"/></g></svg>